# xmcd
#
# Track frame offsets:
#	150
#	17485
#	31665
#	50042
#	84412
#	100382
#	119087
#	141742
#	180917
#	205595
#	217110
#
# Disc length: 3259 seconds
#
# Revision: 1
# Processed by: cddbd v1.5.1PL2 Copyright (c) Steve Scherf et al.
# Submitted via: audiograbber 1.83.01
#
DISCID=9a0cb90b
DTITLE=Nobody's Business Blues Band - Blue Shoe
DYEAR=2001
DGENRE=Blues
TTITLE0=Don't You Mind Me Saying
TTITLE1=Lady Legs
TTITLE2=Heavy Love
TTITLE3=Sweet Papa John
TTITLE4=The Reason
TTITLE5=One Last Time
TTITLE6=Moving
TTITLE7=Stormy Monday
TTITLE8=Black Hearted Woman
TTITLE9=Don't Want You No More
TTITLE10=It's Changed To The Better
EXTD=
EXTT0=
EXTT1=
EXTT2=
EXTT3=
EXTT4=
EXTT5=
EXTT6=
EXTT7=
EXTT8=
EXTT9=
EXTT10=
PLAYORDER=
